#!OML:ASF E:\motion texture\Top Level 1\Subject 1\Session 1\male.ASF
:FULLY-SPECIFIED
:DEGREES
333
root -17.9997 18.1511 3.33518 130.309 -79.4151 -125.444
lowerback -3.0195 1.6577 9.17853
upperback -1.33599 1.78464 3.75684
thorax 0.476898 0.810216 -1.18485
lowerneck -14.2453 -0.263442 -5.0951
upperneck 22.4845 1.39118 -3.5422
head 9.47189 -0.331397 -0.224606
rclavicle -3.44457e-015 -2.06736e-014
rhumerus -9.38562 -15.7083 -78.0642
rradius 69.3292
rwrist -40.7721
rhand -6.29889 -29.6802
rfingers 7.12502
rthumb 19.545 -58.7177
lclavicle -3.44457e-015 -2.06736e-014
lhumerus -41.9607 -7.33046 90.4426
lradius 70.1708
lwrist -3.12172
lhand -2.37017 25.2255
lfingers 7.12502
lthumb 23.3183 53.8332
rfemur -0.0146609 5.75898 33.8316
rtibia 12.5693
rfoot -9.37834 -6.50688
rtoes 17.9534
lfemur -31.099 5.98486 -5.16398
ltibia 42.3807
lfoot -6.93518 5.70698
ltoes -17.051
334
root -18.1403 18.1346 3.33128 130.762 -79.2088 -125.714
lowerback -3.16803 1.81177 9.39693
upperback -1.40536 1.97046 3.65112
thorax 0.514835 0.90146 -1.40266
lowerneck -14.1663 -0.231266 -5.09765
upperneck 22.5579 1.47578 -3.74668
head 9.48575 -0.320375 -0.285512
rclavicle 1.1396e-014 2.66371e-014
rhumerus -7.72501 -16.4386 -78.0181
rradius 68.6189
rwrist -41.706
rhand -6.91315 -30.3084
rfingers 7.12502
rthumb 18.9543 -59.4049
lclavicle 1.1396e-014 2.66371e-014
lhumerus -42.0634 -7.36078 90.3764
lradius 71.2137
lwrist -2.83707
lhand -2.34872 25.4002
lfingers 7.12502
lthumb 23.3389 54.0054
rfemur 0.281885 5.84168 33.9759
rtibia 12.6381
rfoot -9.72847 -6.37922
rtoes 17.3769
lfemur -31.1094 5.47014 -4.84356
ltibia 39.5663
lfoot -6.65597 6.37319
ltoes -17.0111
335
root -18.2823 18.1166 3.32819 131.166 -79.005 -125.914
lowerback -3.33809 1.967 9.61484
upperback -1.4813 2.15461 3.54604
thorax 0.559713 0.991748 -1.61815
lowerneck -14.0849 -0.205366 -5.08403
upperneck 22.616 1.54745 -3.95093
head 9.49398 -0.313114 -0.350516
rclavicle 1.421e-015 6.32135e-014
rhumerus -6.13076 -17.1491 -77.9658
rradius 67.8229
rwrist -42.4858
rhand -7.44527 -30.867
rfingers 7.12502
rthumb 18.4425 -60.0127
lclavicle 1.421e-015 6.32135e-014
lhumerus -42.1566 -7.38744 90.3347
lradius 72.2478
lwrist -2.55529
lhand -2.31872 25.5119
lfingers 7.12502
lthumb 23.3677 54.1134
rfemur 0.564904 5.90843 34.1094
rtibia 12.7002
rfoot -10.0748 -6.23083
rtoes 16.7975
lfemur -31.0529 4.87837 -4.49005
ltibia 36.603
lfoot -6.25738 7.08119
ltoes -16.9252
336
root -18.4264 18.0977 3.3259 131.524 -78.8086 -126.065
lowerback -3.51356 2.11965 9.82566
upperback -1.55792 2.33403 3.44343
thorax 0.60791 1.07967 -1.8263
lowerneck -14.0084 -0.183202 -5.07405
upperneck 22.662 1.60984 -4.13129
head 9.49867 -0.307 -0.40768
rclavicle 4.94089e-015 -1.39149e-014
rhumerus -4.60893 -17.8211 -77.9024
rradius 66.9637
rwrist -43.1275
rhand -7.90412 -31.3681
rfingers 7.12502
rthumb 18.0011 -60.5551
lclavicle 4.94089e-015 -1.39149e-014
lhumerus -42.2414 -7.40316 90.3199
lradius 73.2663
lwrist -2.2877
lhand -2.24875 25.5784
lfingers 7.12502
lthumb 23.4348 54.1713
rfemur 0.858649 5.95052 34.2259
rtibia 12.7472
rfoot -10.423 -6.06517
rtoes 16.2495
lfemur -30.9111 4.2069 -4.10826
ltibia 33.5078
lfoot -5.78272 7.82483
ltoes -16.6954
337
root -18.5725 18.0777 3.32427 131.77 -78.6237 -126.095
lowerback -3.70518 2.26856 10.0353
upperback -1.6394 2.50568 3.34344
thorax 0.660836 1.16357 -2.03004
lowerneck -13.9445 -0.163618 -5.08424
upperneck 22.7151 1.6641 -4.26366
head 9.50759 -0.301077 -0.445935
rclavicle 1.12515e-014 -1.19271e-015
rhumerus -3.1843 -18.451 -77.8171
rradius 66.0722
rwrist -43.6369
rhand -8.31191 -31.8324
rfingers 7.12502
rthumb 17.6087 -61.055
lclavicle 1.12515e-014 -1.19271e-015
lhumerus -42.321 -7.41623 90.3351
lradius 74.27
lwrist -2.0321
lhand -2.16172 25.6178
lfingers 7.12502
lthumb 23.5183 54.2
rfemur 1.15438 5.9643 34.3345
rtibia 12.7823
rfoot -10.7714 -5.89446
rtoes 15.7335
lfemur -30.7125 3.44914 -3.69156
ltibia 30.3271
lfoot -5.29752 8.59517
ltoes -16.3498
